<?xml version="1.0" standalone="no"?>
<!DOCTYPE svg PUBLIC "-//W3C//DTD SVG 20010904//EN"
 "http://www.w3.org/TR/2001/REC-SVG-20010904/DTD/svg10.dtd">
<svg version="1.0" xmlns="http://www.w3.org/2000/svg"
 width="866.000000pt" height="650.000000pt" viewBox="0 0 866.000000 650.000000"
 preserveAspectRatio="xMidYMid meet">

<g transform="translate(0.000000,650.000000) scale(0.100000,-0.100000)"
fill="#000000" stroke="none">
<path d="M3430 3943 c-355 -24 -542 -96 -775 -297 -82 -70 -1095 -1070 -1095
-1080 0 -3 174 -6 386 -6 l386 0 272 263 c482 468 498 482 603 533 144 70 97
67 1308 71 l1091 4 259 259 260 260 -1325 -2 c-729 -1 -1345 -3 -1370 -5z"/>
<path d="M5580 3255 l-695 -695 420 0 420 0 695 695 695 695 -420 0 -420 0
-695 -695z"/>
<path d="M3440 3328 c-98 -12 -193 -45 -266 -94 -33 -21 -199 -177 -379 -356
l-320 -318 365 0 364 0 121 119 c132 130 171 155 266 171 40 6 327 10 754 10
l690 0 240 240 240 240 -1000 -1 c-550 -1 -1034 -6 -1075 -11z"/>
<path d="M6080 2720 c0 -5 11 -10 25 -10 24 0 25 -2 25 -75 0 -60 3 -75 15
-75 12 0 15 15 15 75 l0 75 30 0 c17 0 30 5 30 10 0 6 -30 10 -70 10 -40 0
-70 -4 -70 -10z"/>
<path d="M6240 2645 c0 -50 4 -85 10 -85 6 0 10 27 10 62 0 70 9 68 36 -9 10
-29 24 -53 30 -53 7 0 23 28 36 63 l23 62 3 -62 c2 -47 7 -63 17 -63 12 0 15
17 15 85 0 84 0 85 -25 85 -14 0 -25 -4 -25 -10 0 -23 -44 -124 -48 -110 -27
85 -45 120 -63 120 -17 0 -19 -8 -19 -85z"/>
</g>
</svg>
